<mxfile host="app.diagrams.net" agent="Mozilla/5.0 (Windows NT 10.0; Win64; x64) AppleWebKit/537.36 (KHTML, like Gecko) Chrome/135.0.0.0 Safari/537.36 Edg/135.0.0.0" version="26.2.12">
  <diagram id="prtHgNgQTEPvFCAcTncT" name="Page-1">
    <mxGraphModel dx="936" dy="534" grid="1" gridSize="10" guides="1" tooltips="1" connect="1" arrows="1" fold="1" page="1" pageScale="1" pageWidth="1169" pageHeight="827" math="0" shadow="0">
      <root>
        <mxCell id="0" />
        <mxCell id="1" parent="0" />
        <mxCell id="2dJOspn7nUr0IREodXQY-30" value="" style="edgeStyle=orthogonalEdgeStyle;rounded=0;orthogonalLoop=1;jettySize=auto;html=1;fontFamily=Helvetica;fontSize=12;fontColor=default;dashed=1;dashPattern=8 8;strokeColor=default;align=center;verticalAlign=middle;labelBackgroundColor=default;endArrow=baseDash;endFill=0;" parent="1" source="2dJOspn7nUr0IREodXQY-19" target="2dJOspn7nUr0IREodXQY-20" edge="1">
          <mxGeometry relative="1" as="geometry" />
        </mxCell>
        <mxCell id="2dJOspn7nUr0IREodXQY-31" value="" style="edgeStyle=orthogonalEdgeStyle;rounded=0;orthogonalLoop=1;jettySize=auto;html=1;fontFamily=Helvetica;fontSize=12;fontColor=default;dashed=1;dashPattern=8 8;strokeColor=default;align=center;verticalAlign=middle;labelBackgroundColor=default;endArrow=baseDash;endFill=0;" parent="1" source="2dJOspn7nUr0IREodXQY-19" target="2dJOspn7nUr0IREodXQY-25" edge="1">
          <mxGeometry relative="1" as="geometry" />
        </mxCell>
        <mxCell id="2dJOspn7nUr0IREodXQY-19" value="路由器" style="rounded=0;whiteSpace=wrap;html=1;dashed=1;dashPattern=12 12;" parent="1" vertex="1">
          <mxGeometry x="390" y="546" width="90" height="50" as="geometry" />
        </mxCell>
        <mxCell id="2dJOspn7nUr0IREodXQY-26" value="" style="group" parent="1" vertex="1" connectable="0">
          <mxGeometry x="230" y="460" width="130" height="210" as="geometry" />
        </mxCell>
        <mxCell id="2dJOspn7nUr0IREodXQY-9" value="" style="rounded=0;whiteSpace=wrap;html=1;dashed=1;dashPattern=12 12;" parent="2dJOspn7nUr0IREodXQY-26" vertex="1">
          <mxGeometry width="130" height="210" as="geometry" />
        </mxCell>
        <mxCell id="2dJOspn7nUr0IREodXQY-10" value="计算节点" style="rounded=0;whiteSpace=wrap;html=1;dashed=1;dashPattern=12 12;" parent="2dJOspn7nUr0IREodXQY-26" vertex="1">
          <mxGeometry x="20" y="150" width="90" height="50" as="geometry" />
        </mxCell>
        <mxCell id="2dJOspn7nUr0IREodXQY-11" value="路由器" style="rounded=0;whiteSpace=wrap;html=1;dashed=1;dashPattern=12 12;" parent="2dJOspn7nUr0IREodXQY-26" vertex="1">
          <mxGeometry x="20" y="30" width="90" height="50" as="geometry" />
        </mxCell>
        <mxCell id="2dJOspn7nUr0IREodXQY-17" value="域代理节点" style="rounded=0;whiteSpace=wrap;html=1;dashed=1;dashPattern=12 12;" parent="2dJOspn7nUr0IREodXQY-26" vertex="1">
          <mxGeometry x="20" y="90" width="90" height="50" as="geometry" />
        </mxCell>
        <mxCell id="2dJOspn7nUr0IREodXQY-20" value="网络域" style="text;html=1;align=center;verticalAlign=middle;whiteSpace=wrap;rounded=0;fontFamily=Helvetica;fontSize=12;fontColor=default;" parent="2dJOspn7nUr0IREodXQY-26" vertex="1">
          <mxGeometry x="35" width="60" height="30" as="geometry" />
        </mxCell>
        <mxCell id="2dJOspn7nUr0IREodXQY-33" style="edgeStyle=orthogonalEdgeStyle;rounded=0;orthogonalLoop=1;jettySize=auto;html=1;exitX=0.25;exitY=1;exitDx=0;exitDy=0;entryX=0.65;entryY=-0.056;entryDx=0;entryDy=0;entryPerimeter=0;fontFamily=Helvetica;fontSize=12;fontColor=default;dashed=1;dashPattern=8 8;strokeColor=default;align=center;verticalAlign=middle;labelBackgroundColor=default;endArrow=baseDash;endFill=0;" parent="2dJOspn7nUr0IREodXQY-26" edge="1">
          <mxGeometry relative="1" as="geometry">
            <mxPoint x="147.5000000000001" y="-34.31999999999999" as="sourcePoint" />
            <mxPoint x="74" y="-5.684341886080802e-14" as="targetPoint" />
            <Array as="points">
              <mxPoint x="148" y="-20" />
              <mxPoint x="74" y="-20" />
            </Array>
          </mxGeometry>
        </mxCell>
        <mxCell id="2dJOspn7nUr0IREodXQY-27" value="" style="group" parent="1" vertex="1" connectable="0">
          <mxGeometry x="510" y="466" width="130" height="210" as="geometry" />
        </mxCell>
        <mxCell id="2dJOspn7nUr0IREodXQY-21" value="" style="rounded=0;whiteSpace=wrap;html=1;dashed=1;dashPattern=12 12;" parent="2dJOspn7nUr0IREodXQY-27" vertex="1">
          <mxGeometry width="130" height="210" as="geometry" />
        </mxCell>
        <mxCell id="2dJOspn7nUr0IREodXQY-22" value="计算节点" style="rounded=0;whiteSpace=wrap;html=1;dashed=1;dashPattern=12 12;" parent="2dJOspn7nUr0IREodXQY-27" vertex="1">
          <mxGeometry x="20" y="150" width="90" height="50" as="geometry" />
        </mxCell>
        <mxCell id="2dJOspn7nUr0IREodXQY-23" value="路由器" style="rounded=0;whiteSpace=wrap;html=1;dashed=1;dashPattern=12 12;" parent="2dJOspn7nUr0IREodXQY-27" vertex="1">
          <mxGeometry x="20" y="30" width="90" height="50" as="geometry" />
        </mxCell>
        <mxCell id="2dJOspn7nUr0IREodXQY-24" value="域代理节点" style="rounded=0;whiteSpace=wrap;html=1;dashed=1;dashPattern=12 12;" parent="2dJOspn7nUr0IREodXQY-27" vertex="1">
          <mxGeometry x="20" y="90" width="90" height="50" as="geometry" />
        </mxCell>
        <mxCell id="2dJOspn7nUr0IREodXQY-25" value="网络域" style="text;html=1;align=center;verticalAlign=middle;whiteSpace=wrap;rounded=0;fontFamily=Helvetica;fontSize=12;fontColor=default;" parent="2dJOspn7nUr0IREodXQY-27" vertex="1">
          <mxGeometry x="35" width="60" height="30" as="geometry" />
        </mxCell>
        <mxCell id="2dJOspn7nUr0IREodXQY-34" style="edgeStyle=orthogonalEdgeStyle;rounded=0;orthogonalLoop=1;jettySize=auto;html=1;exitX=0.75;exitY=1;exitDx=0;exitDy=0;entryX=0.328;entryY=0.011;entryDx=0;entryDy=0;entryPerimeter=0;fontFamily=Helvetica;fontSize=12;fontColor=default;endArrow=baseDash;endFill=0;dashed=1;dashPattern=8 8;" parent="1" edge="1">
          <mxGeometry relative="1" as="geometry">
            <mxPoint x="502.5000000000001" y="429.67" as="sourcePoint" />
            <mxPoint x="574.6800000000001" y="465.99999999999994" as="targetPoint" />
            <Array as="points">
              <mxPoint x="503" y="440" />
              <mxPoint x="575" y="440" />
            </Array>
          </mxGeometry>
        </mxCell>
        <mxCell id="2dJOspn7nUr0IREodXQY-5" value="" style="rounded=0;whiteSpace=wrap;html=1;dashed=1;dashPattern=12 12;movable=1;resizable=1;rotatable=1;deletable=1;editable=1;locked=0;connectable=1;" parent="1" vertex="1">
          <mxGeometry x="260" y="220" width="340" height="210" as="geometry" />
        </mxCell>
        <mxCell id="2dJOspn7nUr0IREodXQY-1" value="事件监听" style="rounded=0;whiteSpace=wrap;html=1;dashed=1;dashPattern=12 12;container=0;" parent="1" vertex="1">
          <mxGeometry x="290" y="370" width="90" height="50" as="geometry" />
        </mxCell>
        <mxCell id="2dJOspn7nUr0IREodXQY-2" value="存储预配置" style="rounded=0;whiteSpace=wrap;html=1;dashed=1;dashPattern=12 12;container=0;" parent="1" vertex="1">
          <mxGeometry x="290" y="250" width="280" height="30" as="geometry" />
        </mxCell>
        <mxCell id="2dJOspn7nUr0IREodXQY-14" value="性能检测" style="rounded=0;whiteSpace=wrap;html=1;dashed=1;dashPattern=12 12;container=0;" parent="1" vertex="1">
          <mxGeometry x="480" y="370" width="90" height="50" as="geometry" />
        </mxCell>
        <mxCell id="2dJOspn7nUr0IREodXQY-15" value="策略引擎" style="text;html=1;align=center;verticalAlign=middle;whiteSpace=wrap;rounded=0;fontFamily=Helvetica;fontSize=12;fontColor=default;container=0;" parent="1" vertex="1">
          <mxGeometry x="400" y="220" width="60" height="30" as="geometry" />
        </mxCell>
        <mxCell id="2dJOspn7nUr0IREodXQY-35" value="路由检测" style="rounded=0;whiteSpace=wrap;html=1;dashed=1;dashPattern=12 12;container=0;" parent="1" vertex="1">
          <mxGeometry x="385" y="370" width="90" height="50" as="geometry" />
        </mxCell>
        <mxCell id="Jwpm6C5BWXbN8CrJGc4Z-2" value="应用定义" style="rounded=0;whiteSpace=wrap;html=1;dashed=1;dashPattern=12 12;container=0;" vertex="1" parent="1">
          <mxGeometry x="290" y="290" width="280" height="30" as="geometry" />
        </mxCell>
        <mxCell id="Jwpm6C5BWXbN8CrJGc4Z-3" value="跨域分发策略" style="rounded=0;whiteSpace=wrap;html=1;dashed=1;dashPattern=12 12;container=0;" vertex="1" parent="1">
          <mxGeometry x="290" y="330" width="280" height="30" as="geometry" />
        </mxCell>
      </root>
    </mxGraphModel>
  </diagram>
</mxfile>
